<svg width="1297" height="1127" viewBox="0 0 1297 1127" fill="none" xmlns="http://www.w3.org/2000/svg">
<g clip-path="url(#clip0_2_29)">
<rect width="1296.75" height="1126.12" transform="translate(0.25293 0.746094)" fill="#FFBF00"/>
<path fill-rule="evenodd" clip-rule="evenodd" d="M677.922 844.01C681.125 848.489 686.293 851.147 691.8 851.147H843.023C857.08 851.147 865.106 835.102 856.677 823.853L662.069 564.136C657.505 558.046 657.527 549.67 662.121 543.604L845.759 301.116C854.27 289.878 846.254 273.752 832.157 273.752H690.125C684.639 273.752 679.488 276.39 676.281 280.842L532.934 479.826C523.252 493.265 502.027 486.416 502.027 469.852V290.815C502.027 281.392 494.388 273.752 484.965 273.752H358.566C349.143 273.752 341.503 281.392 341.503 290.815V471.142C361.217 439.843 373.449 397.571 381.251 339.265C398.806 492.355 449.955 538.293 602.774 560.788C436.199 582.069 398.042 639.001 381.251 781.155C371.653 724.112 359.808 681.64 341.503 649.898V834.084C341.503 843.508 349.143 851.147 358.566 851.147H484.965C494.388 851.147 502.027 843.508 502.027 834.084V651.263C502.027 634.669 523.315 627.84 532.968 641.337L677.922 844.01Z" fill="black"/>
<ellipse cx="972.813" cy="761.193" rx="85.3124" ry="85.3124" fill="black"/>
</g>
<defs>
<clipPath id="clip0_2_29">
<rect width="1296.75" height="1126.12" fill="white" transform="translate(0.25293 0.746094)"/>
</clipPath>
</defs>
</svg>
